# AST/ASF file generated using VICON BodyLanguage
# -----------------------------------------------
:version 1.10
:name VICON
:units
  mass 1.0
  length 0.45
  angle deg
:documentation
   .ast/.asf automatically generated from VICON data using
   VICON BodyBuilder and BodyLanguage model FoxedUp or BRILLIANT.MOD
:root
   order TX TY TZ RX RY RZ
   axis XYZ
   position 0 0 0  
   orientation 0 0 0 
:bonedata
  begin
     id 1 
     name lhipjoint
     direction 0.537252 -0.787203 0.302774 
     length 2.29576 
     axis 0 0 0  XYZ
  end
  begin
     id 2 
     name lfemur
     direction 0.34202 -0.939693 0  
     length 7.31114  
     axis 0 0 20  XYZ
    dof rx ry rz
    limits (-160.0 20.0)
           (-70.0 70.0)
           (-60.0 70.0)
  end
  begin
     id 3 
     name ltibia
     direction 0.34202 -0.939693 0   
     length 8.36008   
     axis 0 0 20   XYZ
    dof rx
    limits (-10.0 170.0)
  end
  begin
     id 4 
     name lfoot
     direction 0.0969116 -0.266263 0.959016   
     length 2.16704   
     axis -90 7.62852e-016 20   XYZ
    dof rx rz
    limits (-45.0 90.0)
           (-70.0 20.0)
  end
  begin
     id 5 
     name ltoes
     direction 1.53563e-011 -4.21779e-011 1   
     length 1.08338   
     axis -90 7.62852e-016 20   XYZ
    dof rx
    limits (-90.0 20.0)
  end
  begin
     id 6 
     name rhipjoint
     direction -0.588228 -0.754791 0.290308   
     length 2.39434  
     axis 0 0 0  XYZ 
  end
  begin
     id 7 
     name rfemur
     direction -0.34202 -0.939693 0   
     length 7.45207   
     axis 0 0 -20   XYZ
    dof rx ry rz
    limits (-160.0 20.0)
           (-70.0 70.0)
           (-70.0 60.0)
  end
  begin
     id 8 
     name rtibia
     direction -0.34202 -0.939693 0   
     length 8.03565   
     axis 0 0 -20   XYZ
    dof rx
    limits (-10.0 170.0)
 end
 begin
     id 9 
     name rfoot
     direction -0.107009 -0.294004 0.949795   
     length 2.11509  
     axis -90 -7.62852e-016 -20   XYZ
    dof rx rz
    limits (-45.0 90.0)
           (-20.0 70.0)
  end
  begin
     id 10 
     name rtoes
     direction -1.53533e-011 -4.22004e-011 1   
     length 1.05493   
     axis -90 -7.62852e-016 -20   XYZ
    dof rx
    limits (-90.0 20.0)
  end
  begin
     id 11 
     name lowerback
     direction -0.0115208 0.997969 -0.0626515   
     length 2.03153   
     axis 0 0 0   XYZ
    dof rx ry rz
    limits (-20.0 45.0)
           (-30.0 30.0)
           (-30.0 30.0)
  end
  begin
     id 12 
     name upperback
     direction -0.00423475 0.999974 -0.00583614   
     length 2.03619   
     axis 0 0 0   XYZ
    dof rx ry rz
    limits (-20.0 45.0)
           (-30.0 30.0)
           (-30.0 30.0)
  end
  begin
     id 13 
     name thorax
     direction 0.00289429 0.999728 0.0231573   
     length 2.03921   
     axis 0 0 0   XYZ
    dof rx ry rz
    limits (-20.0 45.0)
           (-30.0 30.0)
           (-30.0 30.0)
  end
  begin
     id 14 
     name lowerneck
     direction 0.0188995 0.987777 0.154721   
     length 1.78836   
     axis 0 0 0   XYZ
    dof rx ry rz
    limits (-20.0 45.0)
           (-30.0 30.0)
           (-30.0 30.0)
  end
  begin
     id 15 
     name upperneck
     direction -0.00612612 0.992995 -0.118   
     length 1.81789   
     axis 0 0 0   XYZ
    dof rx ry rz
    limits (-20.0 45.0)
           (-30.0 30.0)
           (-30.0 30.0)
  end
  begin
     id 16
     name head
     direction -0.00420226 0.998397 -0.0564482  
     length 1.82234  
     axis 0 0 0   XYZ
    dof rx ry rz
    limits (-20.0 45.0)
           (-30.0 30.0)
           (-30.0 30.0)
  end
  begin
     id 17 
     name lclavicle
     direction 0.916488 0.396539 0.0529676  
     length 3.51732  
     axis 0 0 0   XYZ
    dof ry rz
    limits (-20.0 10.0)
           (0.0 20.0)
  end
  begin
     id 18 
     name lhumerus
     direction 1 -4.4896e-011 8.36962e-028   
     length 5.45077   
     axis 180 -30 -90   XYZ
    dof rx ry rz
    limits (-60.0 90.0)
           (-90.0 90.0)
           (-90.0 90.0)
  end
  begin
     id 19
     name lradius
     direction 1 -4.48962e-011 3.01407e-027   
     length 3.05488   
     axis 180 -30 -90   XYZ
    dof rx
    limits (-10.0 170.0)
  end
  begin
     id 20
     name lwrist
     direction 1 -4.49002e-011 4.72961e-027   
     length 1.52744   
     axis -2.72261e-015 90 90   XYZ
    dof ry
    limits (-180.0 0.0)
 end
  begin
     id 21 
     name lhand
     direction 1 -4.4899e-011 9.45681e-027   
     length 0.638818   
     axis -6.0311e-015 90 90   XYZ
    dof rx rz
    limits (-90.0 90.0)
           (-45.0 45.0)
  end
  begin
     id 22 
     name lfingers
     direction 1 -4.48871e-011 1.88632e-026   
     length 0.515032   
     axis -1.20625e-014 90 90   XYZ
    dof rx
    limits (0.0 90.0)
  end
  begin
     id 23
     name lthumb
     direction 0.707107 -6.34964e-011 0.707107   
     length 0.739485   
     axis -90 45 6.32835e-014   XYZ
    dof rx rz
    limits (-45.0 45.0)
           (-45.0 45.0)
  end
  begin
     id 24 
     name rclavicle
     direction -0.949427 0.303202 0.0815894   
     length 3.76167  
     axis 0 0 0   XYZ 
    dof ry rz
    limits (-10.0 20.0)
           (-20.0 0.0)
  end
  begin
     id 25 
     name rhumerus
     direction -1 -4.48971e-011 -6.43969e-018  
     length 4.88702   
     axis 180 30 90   XYZ
    dof rx ry rz
    limits (-90.0 60.0)
           (-90.0 90.0)
           (-90.0 90.0)
  end
  begin
     id 26 
     name rradius
     direction -1 -4.48987e-011 5.46662e-027   
     length 3.22603   
     axis 180 30 90   XYZ
    dof rx
    limits (-10.0 170.0)
  end
  begin
     id 27 
     name rwrist
     direction -1 -4.48956e-011 4.72476e-027   
     length 1.61302   
     axis -2.72261e-015 -90 -90   XYZ
    dof ry
    limits (-180.0 0.0)
  end
  begin
     id 28
     name rhand
     direction -1 -4.4889e-011 9.43571e-027   
     length 0.716293   
     axis -6.0311e-015 -90 -90   XYZ
    dof rx rz
    limits (-90.0 90.0)
           (-45.0 45.0)
  end
  begin
     id 29
     name rfingers
     direction -1 -4.48887e-011 1.88701e-026   
     length 0.577494   
     axis -1.20625e-014 -90 -90   XYZ
    dof rx
    limits (0.0 90.0)
  end
  begin
     id 30
     name rthumb
     direction -0.707107 -6.34825e-011 0.707107   
     length 0.829169   
     axis -90 -45 -6.32835e-014   XYZ
    dof rx rz
    limits (-45.0 45.0)
           (-45.0 45.0)
  end
:hierarchy
  begin
    root lhipjoint rhipjoint lowerback
    lhipjoint lfemur
    lfemur ltibia
    ltibia lfoot
    lfoot ltoes
    rhipjoint rfemur
    rfemur rtibia
    rtibia rfoot
    rfoot rtoes
    lowerback upperback
    upperback thorax
    thorax lowerneck lclavicle rclavicle
    lowerneck upperneck
    upperneck head
    lclavicle lhumerus
    lhumerus lradius
    lradius lwrist
    lwrist lhand lthumb
    lhand lfingers
    rclavicle rhumerus
    rhumerus rradius
    rradius rwrist
    rwrist rhand rthumb
    rhand rfingers
  end

#!OML:ASF F:\VICON\USERDATA\INSTALL\rory3\rory3.ASF
:FULLY-SPECIFIED
:DEGREES
1334
root 1.70933 18.4964 0.188458 7.39084 74.1128 -4.78376
lowerback -13.5435 -5.14786 -6.66585
upperback -5.93123 -5.44402 -5.1906
thorax 1.39936 -2.50478 -2.50681
lowerneck -10.0705 -16.8411 -7.76668
upperneck 6.72997 -22.7183 10.124
head 5.66541 -10.7652 2.17206
rclavicle -1.51076e-014 -3.81667e-014
rhumerus 43.2858 -32.5942 -54.5717
rradius 52.3783
rwrist -12.1727
rhand -33.3687 11.1409
rfingers 7.12502
rthumb -6.57016 -18.7372
lclavicle -1.51076e-014 -3.81667e-014
lhumerus 68.9298 -53.1752 48.2421
lradius 95.4592
lwrist 60.3532
lhand -24.9584 27.8773
lfingers 7.12502
lthumb 1.5517 57.8515
rfemur -7.50255 9.66441 14.7637
rtibia 1.51076e-014
rfoot -4.21199 5.41212
rtoes -2.60567
lfemur -10.7196 9.30622 -18.4557
ltibia 16.947
lfoot -17.579 9.53817
ltoes -27.5953
1335
root 1.70668 18.4969 0.189966 7.32481 74.147 -4.89909
lowerback -13.5152 -5.14401 -6.66114
upperback -5.90431 -5.44273 -5.18249
thorax 1.4132 -2.50535 -2.4995
lowerneck -10.1647 -16.8678 -7.75951
upperneck 6.84482 -22.7555 10.0715
head 5.71227 -10.779 2.13899
rclavicle 1.78906e-014 -4.77083e-014
rhumerus 42.9659 -32.689 -54.3815
rradius 52.8479
rwrist -12.3341
rhand -33.4726 11.2823
rfingers 7.12502
rthumb -6.67042 -18.5926
lclavicle 1.78906e-014 -4.77083e-014
lhumerus 69.0027 -53.2113 48.0766
lradius 95.5963
lwrist 60.4791
lhand -24.951 27.7928
lfingers 7.12502
lthumb 1.55886 57.7668
rfemur -7.55625 9.63297 14.8029
rtibia 1.19271e-014
rfoot -4.22824 5.40249
rtoes -2.83636
lfemur -10.7848 9.36313 -18.4205
ltibia 16.9587
lfoot -17.5628 9.45462
ltoes -27.6644
1336
root 1.7044 18.4977 0.19241 7.31477 74.1698 -4.96027
lowerback -13.5044 -5.13785 -6.67114
upperback -5.89481 -5.43409 -5.18442
thorax 1.41812 -2.50117 -2.49425
lowerneck -10.2193 -16.8888 -7.78106
upperneck 7.02492 -22.7935 10.0316
head 5.77832 -10.793 2.11281
rclavicle 9.06458e-014 3.49861e-014
rhumerus 42.5485 -32.7063 -54.0624
rradius 53.341
rwrist -12.5703
rhand -33.5323 11.2354
rfingers 7.12502
rthumb -6.7281 -18.6378
lclavicle 9.06458e-014 3.49861e-014
lhumerus 69.1132 -53.2714 47.8491
lradius 95.8048
lwrist 60.5224
lhand -25.0699 27.7782
lfingers 7.12502
lthumb 1.44408 57.7531
rfemur -7.61832 9.61178 14.8299
rtibia -2.54444e-014
rfoot -4.20012 5.38803
rtoes -2.82148
lfemur -10.8497 9.32803 -18.3933
ltibia 16.9677
lfoot -17.5723 9.42457
ltoes -27.2575
1337
root 1.69961 18.4996 0.195786 7.32369 74.1963 -5.0568
lowerback -13.5009 -5.15274 -6.70673
upperback -5.92826 -5.45124 -5.1646
thorax 1.38601 -2.50733 -2.45476
lowerneck -10.1507 -16.8754 -7.68289
upperneck 6.98412 -22.7731 9.92144
head 5.72797 -10.7925 2.08197
rclavicle 6.0033e-014 3.18055e-014
rhumerus 42.099 -32.6383 -53.7217
rradius 53.8642
rwrist -12.9613
rhand -33.6478 11.1642
rfingers 7.12502
rthumb -6.83956 -18.7054
lclavicle 6.0033e-014 3.18055e-014
lhumerus 69.1066 -53.329 47.7178
lradius 96.0142
lwrist 60.5852
lhand -25.1901 27.907
lfingers 7.12502
lthumb 1.328 57.8826
rfemur -7.7431 9.58398 14.86
rtibia -9.54166e-015
rfoot -4.17208 5.36634
rtoes -2.91439
lfemur -11.0141 9.25406 -18.3574
ltibia 17.0241
lfoot -17.5861 9.43043
ltoes -26.9882
1338
root 1.69805 18.5003 0.198504 7.33619 74.2252 -5.10031
lowerback -13.4527 -5.18031 -6.7411
upperback -5.9598 -5.49048 -5.15034
thorax 1.33147 -2.52447 -2.42135
lowerneck -10.0307 -16.8494 -7.61459
upperneck 6.92029 -22.7373 9.84885
head 5.6691 -10.7857 2.07206
rclavicle 8.11041e-014 -1.59028e-014
rhumerus 41.5845 -32.5447 -53.3718
rradius 54.4695
rwrist -13.3643
rhand -33.6202 11.2056
rfingers 7.12502
rthumb -6.81294 -18.6647
lclavicle 8.11041e-014 -1.59028e-014
lhumerus 68.9062 -53.4061 47.7406
lradius 96.2932
lwrist 60.6424
lhand -25.2422 27.9237
lfingers 7.12502
lthumb 1.27766 57.8996
rfemur -7.80529 9.55528 14.8809
rtibia -1.27222e-014
rfoot -4.18843 5.35572
rtoes -3.0308
lfemur -11.1193 9.34949 -18.3436
ltibia 17.0849
lfoot -17.5651 9.32844
ltoes -27.0853
